<?xml version="1.0" encoding="UTF-8"?>
<svg xmlns="http://www.w3.org/2000/svg" xmlns:xlink="http://www.w3.org/1999/xlink" width="198px" height="84px" viewBox="0 0 303 84" version="1.1">
<g id="surface1">
<path style=" stroke:none;fill-rule:evenodd;fill:rgb(6.27451%,29.803923%,60.784316%);fill-opacity:1;" d="M 98.269531 39.199219 C 112.203125 39.199219 123.628906 30.519531 123.628906 19.601562 C 123.628906 8.679688 112.484375 0 98.550781 0 C 84.613281 0 73.191406 8.679688 73.191406 19.601562 C 73.191406 30.519531 84.335938 39.199219 98.269531 39.199219 Z M 98.550781 33.320312 C 93.53125 33.320312 89.351562 27.160156 89.351562 19.601562 C 89.351562 12.042969 93.53125 5.878906 98.550781 5.878906 C 103.5625 5.878906 107.746094 12.042969 107.746094 19.601562 C 107.746094 27.160156 103.5625 33.320312 98.550781 33.320312 Z M 98.550781 33.320312 "/>
<path style=" stroke:none;fill-rule:evenodd;fill:rgb(6.27451%,29.803923%,60.784316%);fill-opacity:1;" d="M 126.976562 32.761719 L 126.976562 37.800781 L 177.695312 37.800781 L 177.695312 21.5625 L 172.957031 21.5625 C 172.679688 26.878906 169.613281 32.480469 161.253906 33.042969 L 152.054688 33.042969 L 152.054688 6.160156 L 161.253906 6.160156 L 161.253906 1.117188 L 126.695312 1.117188 L 126.695312 6.160156 L 135.890625 6.160156 L 135.890625 33.042969 L 126.695312 33.042969 Z M 126.976562 32.761719 "/>
<path style=" stroke:none;fill-rule:evenodd;fill:rgb(6.27451%,29.803923%,60.784316%);fill-opacity:1;" d="M 5.75 1.117188 L 5.75 6.160156 L 13.828125 6.160156 L 31.109375 37.800781 L 50.894531 37.800781 L 66.777344 6.160156 L 75.699219 6.160156 L 75.699219 1.117188 L 51.449219 1.117188 L 51.449219 6.160156 L 58.417969 6.160156 L 46.15625 30.800781 L 32.78125 6.160156 L 42.535156 6.160156 L 42.535156 1.117188 Z M 5.75 1.117188 "/>
<path style=" stroke:none;fill-rule:evenodd;fill:rgb(6.27451%,29.803923%,60.784316%);fill-opacity:1;" d="M 169.613281 1.117188 L 169.613281 6.160156 L 177.976562 6.160156 L 194.972656 37.800781 L 214.761719 37.800781 L 230.648438 6.160156 L 239.84375 6.160156 L 239.84375 1.117188 L 215.597656 1.117188 L 215.597656 6.160156 L 222.5625 6.160156 L 210.023438 30.800781 L 196.925781 6.160156 L 206.679688 6.160156 L 206.679688 1.117188 Z M 169.613281 1.117188 "/>
<path style=" stroke:none;fill-rule:evenodd;fill:rgb(6.27451%,29.803923%,60.784316%);fill-opacity:1;" d="M 26.652344 69.441406 L 38.078125 69.441406 C 44.484375 69.441406 55.351562 69.160156 55.351562 57.960938 C 55.351562 46.761719 42.253906 47.320312 37.796875 47.320312 L 1.289062 47.320312 L 1.289062 52.082031 L 10.761719 52.082031 L 10.761719 79.238281 L 1.289062 79.238281 L 1.289062 84 L 35.847656 84 L 35.847656 79.238281 L 26.371094 79.238281 L 26.371094 69.441406 Z M 26.652344 52.082031 L 30.550781 52.082031 C 37.515625 52.082031 39.1875 55.441406 39.1875 58.800781 C 39.1875 62.160156 35.285156 64.679688 30.550781 64.679688 L 26.652344 64.679688 Z M 26.652344 52.082031 "/>
<path style=" stroke:none;fill-rule:evenodd;fill:rgb(6.27451%,29.803923%,60.784316%);fill-opacity:1;" d="M 82.941406 52.082031 L 94.367188 52.082031 C 98.269531 52.082031 103.84375 54.320312 103.84375 61.882812 L 109.695312 61.882812 L 109.695312 47.320312 L 57.582031 47.320312 L 57.582031 52.082031 L 67.058594 52.082031 L 67.058594 79.238281 L 57.582031 79.238281 L 57.582031 84 L 109.695312 84 L 109.695312 68.320312 L 103.84375 68.320312 C 103.84375 77.28125 97.992188 79.519531 94.367188 79.519531 L 82.941406 79.519531 L 82.941406 66.921875 L 95.203125 66.921875 L 95.203125 62.160156 L 82.941406 62.160156 Z M 82.941406 52.082031 "/>
<path style=" stroke:none;fill-rule:evenodd;fill:rgb(6.27451%,29.803923%,60.784316%);fill-opacity:1;" d="M 119.171875 47.320312 L 119.171875 52.082031 L 127.257812 52.082031 L 127.257812 79.238281 L 119.171875 79.238281 L 119.171875 84 L 143.421875 84 L 143.421875 79.238281 L 135.335938 79.238281 L 135.335938 62.160156 L 160.417969 84 L 174.351562 84 L 174.351562 52.082031 L 182.433594 52.082031 L 182.433594 47.320312 L 158.1875 47.320312 L 158.1875 52.082031 L 166.269531 52.082031 L 166.269531 66.078125 L 144.8125 47.320312 Z M 119.171875 47.320312 "/>
<path style=" stroke:none;fill-rule:evenodd;fill:rgb(6.27451%,29.803923%,60.784316%);fill-opacity:1;" d="M 195.808594 84 L 195.808594 79.238281 L 203.894531 79.238281 L 203.894531 52.082031 L 200.828125 52.082031 C 196.925781 52.082031 190.796875 54.320312 190.796875 61.882812 L 185.5 61.882812 L 185.5 47.320312 L 238.171875 47.320312 L 238.171875 61.882812 L 232.597656 61.882812 C 232.597656 54.320312 226.746094 52.082031 222.84375 52.082031 L 219.777344 52.082031 L 219.777344 79.238281 L 227.863281 79.238281 L 227.863281 84 Z M 195.808594 84 "/>
<path style=" stroke:none;fill-rule:evenodd;fill:rgb(6.27451%,29.803923%,60.784316%);fill-opacity:1;" d="M 256.5625 66.640625 L 262.976562 55.160156 L 269.664062 66.640625 Z M 253.777344 71.402344 L 271.890625 71.402344 L 274.679688 75.597656 C 275.511719 77.28125 274.957031 79.238281 273.007812 79.238281 L 266.597656 79.238281 L 266.597656 84 L 301.710938 84 L 301.710938 79.238281 L 297.25 79.238281 C 295.578125 79.238281 293.074219 78.121094 291.957031 75.878906 L 275.511719 47.320312 L 257.957031 47.320312 L 242.351562 74.480469 C 240.957031 76.722656 239.007812 79.238281 235.386719 79.238281 L 231.484375 79.238281 L 231.484375 84 L 256.289062 84 L 256.289062 79.238281 L 252.386719 79.238281 C 250.710938 79.238281 250.15625 77.839844 250.710938 76.441406 L 253.5 71.402344 Z M 253.777344 71.402344 "/>
<path style=" stroke:none;fill-rule:evenodd;fill:rgb(6.27451%,29.803923%,60.784316%);fill-opacity:1;" d="M 262.695312 39.199219 C 276.628906 39.199219 288.054688 30.519531 288.054688 19.601562 C 288.054688 8.679688 276.628906 0 262.695312 0 C 248.761719 0 237.335938 8.679688 237.335938 19.601562 C 237.335938 30.519531 248.484375 39.199219 262.417969 39.199219 Z M 262.976562 33.320312 C 257.957031 33.320312 253.777344 27.160156 253.777344 19.601562 C 253.777344 12.042969 257.957031 5.878906 262.976562 5.878906 C 267.988281 5.878906 272.171875 12.042969 272.171875 19.601562 C 272.171875 27.160156 267.988281 33.320312 262.976562 33.320312 Z M 262.976562 33.320312 "/>
</g>
</svg>
