<?xml version="1.0" encoding="UTF-8"?>
<svg xmlns="http://www.w3.org/2000/svg" xmlns:xlink="http://www.w3.org/1999/xlink" width="100px" height="100px" viewBox="0 0 100 100" version="1.1">
<g id="surface1">
<path style="fill:none;stroke-width:1;stroke-linecap:butt;stroke-linejoin:miter;stroke:rgb(0%,25.490198%,73.333335%);stroke-opacity:1;stroke-miterlimit:10;" d="M 98.501133 49.5 C 98.501133 59.098359 95.701289 68.101172 90.898242 75.700195 C 89.401641 78.198398 87.599531 80.398828 85.600195 82.599258 C 83.399766 85.000781 80.901562 87.201211 78.298945 89.200547 C 73.801406 92.499258 68.700586 95.001328 63.298125 96.598477 C 60.498281 97.398984 57.601758 97.998398 54.60082 98.300039 C 52.899258 98.501133 51.201563 98.60168 49.5 98.60168 C 47.798437 98.60168 47.701758 98.60168 46.800703 98.60168 C 44.70082 98.501133 42.600938 98.199492 40.601602 97.901719 C 38.501719 97.499531 36.498516 97.000664 34.49918 96.40125 C 32.801484 95.801836 31.099922 95.198555 29.498906 94.498594 C 27.801211 93.698086 26.099648 92.901445 24.498633 91.899844 C 23.098711 90.998789 21.698789 90.101602 20.298867 89.1 C 19.8 88.70168 19.200586 88.299492 18.701719 87.800625 C 16.799063 86.300156 15.101367 84.598594 13.500352 82.900898 C 11.501016 80.801016 9.799453 78.500039 8.198438 76.001836 C 3.298711 68.101172 0.498867 59.098359 0.498867 49.5 C 0.498867 22.39875 22.39875 0.498867 49.5 0.498867 C 76.60125 0.498867 75.599648 6.098555 84.501914 15.201914 C 91.099336 21.899883 95.701289 30.500508 97.600078 40.098867 C 98.199492 43.099805 98.501133 46.301836 98.501133 49.5 Z M 98.501133 49.5 " transform="matrix(1.010101,0,0,1.010101,0,0)"/>
<path style=" stroke:none;fill-rule:nonzero;fill:rgb(0%,25.490198%,73.333335%);fill-opacity:1;" d="M 49.898438 90.101562 L 41.011719 90.101562 C 41.011719 90.101562 39.695312 84.34375 39.695312 84.34375 L 33.839844 81.917969 L 28.6875 85.050781 L 22.523438 78.789062 L 25.65625 73.738281 L 23.230469 67.878906 L 17.375 66.464844 L 17.375 57.675781 C 17.375 57.675781 23.230469 56.363281 23.230469 56.363281 L 25.65625 50.402344 L 22.523438 45.355469 L 28.6875 39.089844 L 33.839844 42.222656 L 39.695312 39.796875 L 41.011719 34.039062 L 49.898438 34.039062 C 49.898438 34.039062 51.3125 39.796875 51.3125 39.796875 L 57.171875 42.222656 L 62.324219 39.089844 L 68.484375 45.355469 L 65.355469 50.402344 L 67.777344 56.363281 L 73.535156 57.675781 L 73.535156 66.566406 C 73.535156 66.566406 67.777344 67.878906 67.777344 67.878906 L 65.355469 73.839844 L 68.484375 78.890625 L 62.324219 85.152344 L 57.171875 82.019531 L 51.3125 84.445312 L 50 90.203125 Z M 47.171875 86.667969 L 48.382812 81.414062 C 51.617188 80.910156 54.445312 79.796875 57.070312 77.878906 L 61.71875 80.808594 L 64.039062 78.382812 L 61.109375 73.738281 C 63.132812 71.109375 64.140625 68.28125 64.746094 65.050781 L 70 63.9375 L 70 60.503906 C 70 60.503906 64.644531 59.191406 64.644531 59.191406 C 64.140625 55.859375 63.03125 53.230469 61.109375 50.605469 L 64.039062 45.960938 L 61.617188 43.636719 L 56.96875 46.464844 C 54.34375 44.546875 51.515625 43.433594 48.28125 42.929688 L 47.070312 37.574219 L 43.738281 37.574219 C 43.738281 37.574219 42.425781 42.929688 42.425781 42.929688 C 39.089844 43.433594 36.464844 44.644531 33.839844 46.464844 L 29.191406 43.636719 L 26.867188 46.0625 L 29.695312 50.605469 C 27.777344 53.332031 26.667969 56.0625 26.0625 59.292969 L 20.808594 60.503906 L 20.808594 63.839844 C 20.808594 63.839844 26.0625 65.152344 26.0625 65.152344 C 26.667969 68.484375 27.980469 71.3125 29.695312 73.9375 L 26.867188 78.484375 L 29.292969 80.808594 L 33.839844 77.980469 C 36.566406 79.898438 39.292969 81.011719 42.523438 81.617188 L 43.738281 86.867188 L 47.171875 86.867188 Z M 47.171875 86.667969 "/>
<path style=" stroke:none;fill-rule:nonzero;fill:rgb(86.274511%,60.784316%,8.235294%);fill-opacity:1;" d="M 98.585938 40.503906 C 96.667969 30.808594 92.019531 22.121094 85.355469 15.355469 L 82.625 15.152344 L 82.425781 15.152344 L 79.191406 15.355469 L 74.445312 9.796875 L 66.566406 14.34375 L 68.988281 21.3125 C 67.476562 23.230469 66.464844 24.949219 65.554688 27.171875 L 58.382812 28.484375 L 58.382812 37.574219 C 58.382812 37.574219 65.453125 38.890625 65.453125 38.890625 L 68.890625 44.847656 L 66.566406 51.71875 L 74.445312 56.261719 L 79.191406 50.808594 L 82.523438 51.011719 L 85.859375 50.808594 L 90.605469 56.261719 L 98.484375 51.71875 L 96.160156 44.847656 L 98.6875 40.503906 Z M 82.523438 39.191406 C 78.988281 38.988281 76.566406 36.363281 76.566406 33.132812 C 76.566406 29.796875 78.988281 27.070312 82.523438 26.96875 C 86.0625 27.070312 88.484375 29.796875 88.484375 33.132812 C 88.484375 36.261719 85.960938 38.988281 82.523438 39.191406 Z M 82.523438 39.191406 "/>
<path style=" stroke:none;fill-rule:nonzero;fill:rgb(0%,25.490198%,73.333335%);fill-opacity:1;" d="M 57.171875 68.789062 C 60.503906 62.929688 58.988281 56.0625 54.242188 51.816406 C 49.394531 47.574219 42.019531 47.574219 37.070312 51.617188 C 32.019531 55.757812 30.503906 62.828125 33.9375 68.789062 L 30.910156 70.503906 C 26.769531 63.332031 28.484375 54.445312 34.644531 49.191406 C 40.808594 43.9375 50.101562 43.839844 56.363281 49.089844 C 62.523438 54.34375 64.546875 63.230469 60.304688 70.503906 L 57.375 68.789062 Z M 57.171875 68.789062 "/>
<path style=" stroke:none;fill-rule:nonzero;fill:rgb(0%,25.490198%,73.333335%);fill-opacity:1;" d="M 43.535156 66.363281 L 41.210938 64.039062 L 42.828125 62.324219 C 42.828125 60.605469 43.9375 59.496094 45.65625 59.496094 L 52.625 52.625 L 55.050781 54.949219 L 48.082031 61.917969 C 48.082031 65.152344 45.355469 63.9375 43.535156 66.464844 Z M 43.535156 66.363281 "/>
</g>
</svg>
